<svg width="108" height="49" viewBox="0 0 108 49" fill="none" xmlns="http://www.w3.org/2000/svg">
<path d="M46 13.5455V18.0909H34.5V13.5455H46ZM36.7273 9.36364H43V25.3864C43 25.6288 43.0417 25.8333 43.125 26C43.2083 26.1591 43.3371 26.2803 43.5114 26.3636C43.6856 26.4394 43.9091 26.4773 44.1818 26.4773C44.3712 26.4773 44.5909 26.4545 44.8409 26.4091C45.0985 26.3636 45.2879 26.3258 45.4091 26.2955L46.3182 30.7045C46.0379 30.7879 45.6364 30.8902 45.1136 31.0114C44.5985 31.1326 43.9848 31.2121 43.2727 31.25C41.8333 31.3258 40.625 31.178 39.6477 30.8068C38.6705 30.428 37.9356 29.8333 37.4432 29.0227C36.9508 28.2121 36.7121 27.197 36.7273 25.9773V9.36364ZM56.7812 31.3182C54.8873 31.3182 53.2661 30.9432 51.9176 30.1932C50.5691 29.4356 49.535 28.3826 48.8153 27.0341C48.0956 25.678 47.7358 24.1061 47.7358 22.3182C47.7358 20.5303 48.0956 18.9621 48.8153 17.6136C49.535 16.2576 50.5691 15.2045 51.9176 14.4545C53.2661 13.697 54.8873 13.3182 56.7812 13.3182C58.6752 13.3182 60.2964 13.697 61.6449 14.4545C62.9934 15.2045 64.0275 16.2576 64.7472 17.6136C65.4669 18.9621 65.8267 20.5303 65.8267 22.3182C65.8267 24.1061 65.4669 25.678 64.7472 27.0341C64.0275 28.3826 62.9934 29.4356 61.6449 30.1932C60.2964 30.9432 58.6752 31.3182 56.7812 31.3182ZM56.8267 26.6818C57.357 26.6818 57.8153 26.5038 58.2017 26.1477C58.5881 25.7917 58.8873 25.2841 59.0994 24.625C59.3116 23.9659 59.4176 23.1818 59.4176 22.2727C59.4176 21.3561 59.3116 20.572 59.0994 19.9205C58.8873 19.2614 58.5881 18.7538 58.2017 18.3977C57.8153 18.0417 57.357 17.8636 56.8267 17.8636C56.2661 17.8636 55.785 18.0417 55.3835 18.3977C54.982 18.7538 54.6752 19.2614 54.4631 19.9205C54.2509 20.572 54.1449 21.3561 54.1449 22.2727C54.1449 23.1818 54.2509 23.9659 54.4631 24.625C54.6752 25.2841 54.982 25.7917 55.3835 26.1477C55.785 26.5038 56.2661 26.6818 56.8267 26.6818Z" fill="white"/>
<path d="M74.6903 31.2273C73.4479 31.2273 72.304 30.9015 71.2585 30.25C70.2206 29.5985 69.3873 28.6098 68.7585 27.2841C68.1373 25.9583 67.8267 24.2879 67.8267 22.2727C67.8267 20.1667 68.1525 18.4545 68.804 17.1364C69.4631 15.8182 70.3116 14.8523 71.3494 14.2386C72.3949 13.625 73.4934 13.3182 74.6449 13.3182C75.5085 13.3182 76.2661 13.4697 76.9176 13.7727C77.5691 14.0682 78.1146 14.4659 78.554 14.9659C78.9934 15.4583 79.3267 16 79.554 16.5909H79.6449V7.72727H85.9176V31H79.6903V28.1364H79.554C79.3116 28.7273 78.9631 29.2576 78.5085 29.7273C78.0616 30.1894 77.5161 30.5568 76.8722 30.8295C76.2358 31.0947 75.5085 31.2273 74.6903 31.2273ZM77.0085 26.4091C77.5843 26.4091 78.0767 26.2424 78.4858 25.9091C78.9025 25.5682 79.2206 25.0909 79.4403 24.4773C79.6676 23.8561 79.7812 23.1212 79.7812 22.2727C79.7812 21.4091 79.6676 20.6705 79.4403 20.0568C79.2206 19.4356 78.9025 18.9621 78.4858 18.6364C78.0767 18.303 77.5843 18.1364 77.0085 18.1364C76.4328 18.1364 75.9403 18.303 75.5312 18.6364C75.1297 18.9621 74.8191 19.4356 74.5994 20.0568C74.3873 20.6705 74.2812 21.4091 74.2812 22.2727C74.2812 23.1364 74.3873 23.8788 74.5994 24.5C74.8191 25.1136 75.1297 25.5871 75.5312 25.9205C75.9403 26.2462 76.4328 26.4091 77.0085 26.4091ZM97.4062 31.3182C95.5123 31.3182 93.8911 30.9432 92.5426 30.1932C91.1941 29.4356 90.16 28.3826 89.4403 27.0341C88.7206 25.678 88.3608 24.1061 88.3608 22.3182C88.3608 20.5303 88.7206 18.9621 89.4403 17.6136C90.16 16.2576 91.1941 15.2045 92.5426 14.4545C93.8911 13.697 95.5123 13.3182 97.4062 13.3182C99.3002 13.3182 100.921 13.697 102.27 14.4545C103.618 15.2045 104.652 16.2576 105.372 17.6136C106.092 18.9621 106.452 20.5303 106.452 22.3182C106.452 24.1061 106.092 25.678 105.372 27.0341C104.652 28.3826 103.618 29.4356 102.27 30.1932C100.921 30.9432 99.3002 31.3182 97.4062 31.3182ZM97.4517 26.6818C97.982 26.6818 98.4403 26.5038 98.8267 26.1477C99.2131 25.7917 99.5123 25.2841 99.7244 24.625C99.9366 23.9659 100.043 23.1818 100.043 22.2727C100.043 21.3561 99.9366 20.572 99.7244 19.9205C99.5123 19.2614 99.2131 18.7538 98.8267 18.3977C98.4403 18.0417 97.982 17.8636 97.4517 17.8636C96.8911 17.8636 96.41 18.0417 96.0085 18.3977C95.607 18.7538 95.3002 19.2614 95.0881 19.9205C94.8759 20.572 94.7699 21.3561 94.7699 22.2727C94.7699 23.1818 94.8759 23.9659 95.0881 24.625C95.3002 25.2841 95.607 25.7917 96.0085 26.1477C96.41 26.5038 96.8911 26.6818 97.4517 26.6818Z" fill="#585666"/>
<g clip-path="url(#clip0_5003_96)">
<path d="M9.79687 10.6071C12.5753 14.1343 14.0584 18.4839 14.0046 22.9471V24.0125L14.9213 24.5703C16.1057 25.2873 16.989 26.3994 17.4103 27.7039C17.0404 27.4316 16.6535 27.1825 16.2517 26.9581L13.8073 25.5856L13.3681 28.3557C13.33 28.6004 13.279 28.8431 13.2153 29.0826H6.36574C6.26388 28.7693 6.18113 28.4559 6.10474 28.13L5.55092 25.6232L3.29745 26.8766C2.92097 27.0871 2.55749 27.3194 2.20891 27.5723C2.63839 26.2828 3.50327 25.177 4.65972 24.4387L5.53182 23.8809V22.8907C5.54756 18.4456 7.04855 14.1291 9.80324 10.6071H9.79687ZM9.80324 8C9.66037 8.00035 9.52246 8.05154 9.41493 8.14414L9.35763 8.19428C5.68687 12.2361 3.64854 17.4626 3.62847 22.8844C2.07077 23.8794 0.917735 25.3816 0.370853 27.1286C-0.176028 28.8756 -0.081978 30.7562 0.63657 32.4418C1.39352 30.796 2.65889 29.4274 4.25231 28.5311C4.41211 29.2126 4.62493 29.881 4.88888 30.5304C4.92236 30.6552 4.99656 30.7657 5.10007 30.845C5.20358 30.9242 5.33067 30.9678 5.4618 30.9691H14.2974C14.4757 30.9691 14.6539 30.7998 14.743 30.5366C15.0007 29.9193 15.1803 29.2731 15.2778 28.6126C16.8742 29.5051 18.1406 30.8748 18.8935 32.5233C19.6554 30.846 19.7734 28.9535 19.2255 27.197C18.6776 25.4406 17.5011 23.9394 15.9143 22.9722C15.9773 17.5184 13.9498 12.2416 10.2361 8.19428C10.1808 8.13341 10.1131 8.08466 10.0375 8.05119C9.96179 8.01772 9.87982 8.00028 9.79687 8H9.80324Z" fill="white"/>
<path d="M9.79688 22.3643C9.30794 22.3643 8.82994 22.2217 8.42314 21.9547C8.01634 21.6876 7.69896 21.308 7.51099 20.8636C7.32301 20.4192 7.27287 19.93 7.36688 19.4576C7.46089 18.9852 7.69485 18.5508 8.03925 18.2091C8.38366 17.8674 8.8231 17.6338 9.30218 17.5376C9.78127 17.4414 10.2786 17.487 10.7314 17.6687C11.1841 17.8503 11.5722 18.1598 11.8466 18.5583C12.121 18.9567 12.2694 19.4262 12.2732 19.9075C12.2808 20.2195 12.2259 20.5299 12.1116 20.8209C11.9974 21.112 11.826 21.378 11.6072 21.6038C11.3885 21.8296 11.1267 22.0108 10.8368 22.137C10.547 22.2632 10.2347 22.3319 9.91783 22.3392C9.87777 22.3455 9.83694 22.3455 9.79688 22.3392V22.3643Z" fill="white"/>
<path d="M13.2408 32.5296C13.0815 32.5245 12.9228 32.5509 12.774 32.6071C12.6252 32.6633 12.4893 32.7481 12.3743 32.8567C12.2592 32.9653 12.1674 33.0954 12.1041 33.2394C12.0408 33.3834 12.0074 33.5384 12.0058 33.6953V37.3929C12.0058 37.7153 12.1359 38.0246 12.3675 38.2526C12.5991 38.4806 12.9132 38.6087 13.2408 38.6087C13.5683 38.6087 13.8824 38.4806 14.114 38.2526C14.3456 38.0246 14.4757 37.7153 14.4757 37.3929V33.7454C14.4808 33.5891 14.4542 33.4334 14.3976 33.2873C14.3409 33.1412 14.2553 33.0077 14.1456 32.8945C14.036 32.7814 13.9046 32.6908 13.7591 32.6282C13.6136 32.5655 13.4569 32.532 13.298 32.5296H13.2408Z" fill="#585666"/>
<path d="M6.36574 32.5296C6.20375 32.5212 6.0417 32.5449 5.88922 32.5994C5.73674 32.6538 5.59695 32.738 5.47817 32.8467C5.35939 32.9555 5.26404 33.0866 5.1978 33.2324C5.13156 33.3782 5.09578 33.5356 5.09259 33.6953V37.3929C5.09259 37.7153 5.2227 38.0246 5.4543 38.2526C5.6859 38.4806 6.00001 38.6087 6.32754 38.6087C6.65507 38.6087 6.96919 38.4806 7.20079 38.2526C7.43239 38.0246 7.5625 37.7153 7.5625 37.3929V33.7454C7.56759 33.5891 7.54102 33.4334 7.48436 33.2873C7.42769 33.1412 7.34205 33.0077 7.23244 32.8946C7.12283 32.7814 6.99143 32.6908 6.84591 32.6282C6.70038 32.5655 6.54365 32.532 6.38484 32.5296H6.36574Z" fill="#585666"/>
<path d="M9.70773 32.5296C9.54889 32.5262 9.39094 32.5538 9.2429 32.6105C9.09486 32.6673 8.95964 32.7523 8.84496 32.8605C8.73027 32.9688 8.63838 33.0982 8.57452 33.2414C8.51066 33.3847 8.47609 33.5389 8.47278 33.6953V38.7904C8.47278 39.1129 8.60289 39.4221 8.83449 39.6502C9.06609 39.8782 9.3802 40.0063 9.70773 40.0063C10.0353 40.0063 10.3494 39.8782 10.581 39.6502C10.8126 39.4221 10.9427 39.1129 10.9427 38.7904V33.7767C10.9478 33.6204 10.9212 33.4647 10.8645 33.3186C10.8079 33.1725 10.7222 33.039 10.6126 32.9259C10.503 32.8127 10.3716 32.7222 10.2261 32.6595C10.0806 32.5968 9.92384 32.5633 9.76502 32.5609L9.70773 32.5296Z" fill="#585666"/>
</g>
<defs>
<clipPath id="clip0_5003_96">
<rect width="19.5556" height="32" fill="white" transform="translate(0 8)"/>
</clipPath>
</defs>
</svg>
