<svg width="146" height="53" viewBox="0 0 146 53" fill="none" xmlns="http://www.w3.org/2000/svg">
<path d="M62.5771 18.0909V24.0568H47.4834V18.0909H62.5771ZM50.4067 12.6023H58.6396V33.6321C58.6396 33.9503 58.6943 34.2188 58.8037 34.4375C58.9131 34.6463 59.0821 34.8054 59.3108 34.9148C59.5395 35.0142 59.8328 35.0639 60.1908 35.0639C60.4394 35.0639 60.7277 35.0341 61.0558 34.9744C61.3939 34.9148 61.6425 34.8651 61.8016 34.8253L62.9948 40.6122C62.6269 40.7216 62.0999 40.8558 61.4138 41.0149C60.7377 41.174 59.9323 41.2784 58.9976 41.3281C57.1084 41.4276 55.5225 41.2337 54.2398 40.7464C52.9571 40.2493 51.9926 39.4687 51.3463 38.4048C50.7 37.3409 50.3868 36.0085 50.4067 34.4077V12.6023ZM76.7275 41.4176C74.2417 41.4176 72.1139 40.9254 70.344 39.9411C68.5741 38.9467 67.2169 37.5646 66.2723 35.7947C65.3277 34.0149 64.8554 31.9517 64.8554 29.6051C64.8554 27.2585 65.3277 25.2003 66.2723 23.4304C67.2169 21.6506 68.5741 20.2685 70.344 19.2841C72.1139 18.2898 74.2417 17.7926 76.7275 17.7926C79.2133 17.7926 81.3412 18.2898 83.1111 19.2841C84.8809 20.2685 86.2382 21.6506 87.1828 23.4304C88.1274 25.2003 88.5997 27.2585 88.5997 29.6051C88.5997 31.9517 88.1274 34.0149 87.1828 35.7947C86.2382 37.5646 84.8809 38.9467 83.1111 39.9411C81.3412 40.9254 79.2133 41.4176 76.7275 41.4176ZM76.7872 35.3324C77.4832 35.3324 78.0848 35.0987 78.5919 34.6314C79.099 34.1641 79.4917 33.4979 79.7702 32.6328C80.0486 31.7678 80.1878 30.7386 80.1878 29.5455C80.1878 28.3423 80.0486 27.3132 79.7702 26.4581C79.4917 25.593 79.099 24.9268 78.5919 24.4595C78.0848 23.9922 77.4832 23.7585 76.7872 23.7585C76.0514 23.7585 75.42 23.9922 74.893 24.4595C74.366 24.9268 73.9633 25.593 73.6849 26.4581C73.4065 27.3132 73.2673 28.3423 73.2673 29.5455C73.2673 30.7386 73.4065 31.7678 73.6849 32.6328C73.9633 33.4979 74.366 34.1641 74.893 34.6314C75.42 35.0987 76.0514 35.3324 76.7872 35.3324Z" fill="white"/>
<path d="M100.233 41.2983C98.6025 41.2983 97.1011 40.8707 95.729 40.0156C94.3667 39.1605 93.273 37.8629 92.4477 36.1229C91.6324 34.3828 91.2247 32.1903 91.2247 29.5455C91.2247 26.7812 91.6523 24.5341 92.5074 22.804C93.3724 21.0739 94.4861 19.8061 95.8483 19.0007C97.2204 18.1953 98.6622 17.7926 100.174 17.7926C101.307 17.7926 102.301 17.9915 103.157 18.3892C104.012 18.777 104.728 19.299 105.304 19.9553C105.881 20.6016 106.318 21.3125 106.617 22.0881H106.736V10.4545H114.969V41H106.796V37.2415H106.617C106.299 38.017 105.841 38.7131 105.245 39.3295C104.658 39.9361 103.942 40.4183 103.097 40.7763C102.262 41.1243 101.307 41.2983 100.233 41.2983ZM103.276 34.9744C104.032 34.9744 104.678 34.7557 105.215 34.3182C105.762 33.8707 106.179 33.2443 106.468 32.4389C106.766 31.6236 106.915 30.6591 106.915 29.5455C106.915 28.4119 106.766 27.4425 106.468 26.6371C106.179 25.8217 105.762 25.2003 105.215 24.7727C104.678 24.3352 104.032 24.1165 103.276 24.1165C102.52 24.1165 101.874 24.3352 101.337 24.7727C100.81 25.2003 100.402 25.8217 100.114 26.6371C99.8355 27.4425 99.6963 28.4119 99.6963 29.5455C99.6963 30.679 99.8355 31.6534 100.114 32.4688C100.402 33.2741 100.81 33.8956 101.337 34.3331C101.874 34.7607 102.52 34.9744 103.276 34.9744ZM130.048 41.4176C127.562 41.4176 125.434 40.9254 123.664 39.9411C121.894 38.9467 120.537 37.5646 119.593 35.7947C118.648 34.0149 118.176 31.9517 118.176 29.6051C118.176 27.2585 118.648 25.2003 119.593 23.4304C120.537 21.6506 121.894 20.2685 123.664 19.2841C125.434 18.2898 127.562 17.7926 130.048 17.7926C132.534 17.7926 134.661 18.2898 136.431 19.2841C138.201 20.2685 139.559 21.6506 140.503 23.4304C141.448 25.2003 141.92 27.2585 141.92 29.6051C141.92 31.9517 141.448 34.0149 140.503 35.7947C139.559 37.5646 138.201 38.9467 136.431 39.9411C134.661 40.9254 132.534 41.4176 130.048 41.4176ZM130.108 35.3324C130.804 35.3324 131.405 35.0987 131.912 34.6314C132.419 34.1641 132.812 33.4979 133.09 32.6328C133.369 31.7678 133.508 30.7386 133.508 29.5455C133.508 28.3423 133.369 27.3132 133.09 26.4581C132.812 25.593 132.419 24.9268 131.912 24.4595C131.405 23.9922 130.804 23.7585 130.108 23.7585C129.372 23.7585 128.74 23.9922 128.213 24.4595C127.686 24.9268 127.284 25.593 127.005 26.4581C126.727 27.3132 126.588 28.3423 126.588 29.5455C126.588 30.7386 126.727 31.7678 127.005 32.6328C127.284 33.4979 127.686 34.1641 128.213 34.6314C128.74 35.0987 129.372 35.3324 130.108 35.3324Z" fill="#585666"/>
<g clip-path="url(#clip0_7017_96)">
<path d="M14.5283 10.7477C18.6485 15.8181 20.848 22.0706 20.7682 28.4865V30.018L22.1276 30.8198C23.884 31.8505 25.1939 33.4491 25.8187 35.3243C25.2702 34.9329 24.6963 34.5748 24.1006 34.2523L20.4756 32.2793L19.8242 36.2613C19.7678 36.6131 19.6922 36.962 19.5976 37.3063H9.4401C9.28905 36.8559 9.16633 36.4054 9.05305 35.9369L8.23176 32.3333L4.88997 34.1351C4.33167 34.4378 3.79264 34.7717 3.27571 35.1351C3.91261 33.2816 5.19519 31.692 6.91015 30.6306L8.20344 29.8288V28.4054C8.22677 22.0156 10.4527 15.8106 14.5378 10.7477H14.5283ZM14.5378 7C14.3259 7.0005 14.1214 7.07409 13.9619 7.20721L13.8769 7.27928C8.43337 13.0894 5.41062 20.6025 5.38085 28.3964C3.07086 29.8267 1.36096 31.9861 0.549957 34.4974C-0.261044 37.0087 -0.121571 39.712 0.944002 42.1351C2.06653 39.7692 3.94302 37.8019 6.30598 36.5135C6.54296 37.4932 6.85856 38.454 7.24999 39.3874C7.29963 39.5668 7.40967 39.7257 7.56317 39.8397C7.71667 39.9536 7.90514 40.0163 8.0996 40.018H21.2025C21.4668 40.018 21.7311 39.7748 21.8633 39.3964C22.2453 38.509 22.5116 37.5801 22.6562 36.6306C25.0237 37.9136 26.9017 39.8826 28.0182 42.2523C29.1481 39.8411 29.323 37.1206 28.5105 34.5957C27.6981 32.0708 25.9534 29.9129 23.6003 28.5225C23.6936 20.6827 20.6869 13.0973 15.1797 7.27928C15.0977 7.19177 14.9973 7.1217 14.8851 7.07358C14.7729 7.02547 14.6513 7.0004 14.5283 7H14.5378Z" fill="white"/>
<path d="M14.5283 27.6487C13.8032 27.6486 13.0944 27.4438 12.4911 27.0599C11.8878 26.676 11.4172 26.1302 11.1384 25.4914C10.8597 24.8526 10.7853 24.1494 10.9247 23.4703C11.0641 22.7913 11.4111 22.1668 11.9218 21.6756C12.4325 21.1845 13.0842 20.8486 13.7947 20.7103C14.5051 20.5721 15.2426 20.6376 15.9141 20.8987C16.5856 21.1598 17.161 21.6048 17.5679 22.1775C17.9748 22.7503 18.1949 23.4252 18.2005 24.1171V24.1171C18.2118 24.5655 18.1304 25.0117 17.9609 25.4301C17.7915 25.8485 17.5373 26.2309 17.213 26.5555C16.8886 26.8801 16.5004 27.1406 16.0705 27.3219C15.6406 27.5033 15.1775 27.6021 14.7077 27.6126C14.6482 27.6217 14.5877 27.6217 14.5283 27.6126V27.6487Z" fill="white"/>
<path d="M19.6355 42.2612C19.3993 42.254 19.1639 42.2919 18.9433 42.3727C18.7226 42.4534 18.5211 42.5754 18.3505 42.7315C18.1799 42.8876 18.0437 43.0746 17.9499 43.2816C17.856 43.4886 17.8065 43.7114 17.8041 43.9369V49.2522C17.8041 49.7158 17.997 50.1603 18.3405 50.4881C18.6839 50.8158 19.1497 51 19.6355 51C20.1212 51 20.587 50.8158 20.9304 50.4881C21.2739 50.1603 21.4668 49.7158 21.4668 49.2522V44.009C21.4744 43.7843 21.435 43.5605 21.351 43.3505C21.2669 43.1405 21.1399 42.9486 20.9774 42.7859C20.8148 42.6232 20.62 42.493 20.4042 42.403C20.1884 42.3129 19.9559 42.2647 19.7204 42.2612H19.6355Z" fill="#585666"/>
<path d="M9.44014 42.2612C9.19993 42.2491 8.95961 42.2832 8.73349 42.3615C8.50737 42.4399 8.30007 42.5608 8.12392 42.7171C7.94777 42.8735 7.80637 43.062 7.70814 43.2716C7.60991 43.4811 7.55685 43.7074 7.55212 43.9369V49.2522C7.55212 49.7158 7.74507 50.1603 8.08852 50.4881C8.43197 50.8158 8.89779 51 9.3835 51C9.86922 51 10.335 50.8158 10.6785 50.4881C11.0219 50.1603 11.2149 49.7158 11.2149 49.2522V44.009C11.2224 43.7843 11.183 43.5605 11.099 43.3505C11.015 43.1405 10.888 42.9486 10.7254 42.7859C10.5629 42.6232 10.368 42.493 10.1522 42.403C9.93641 42.3129 9.70398 42.2647 9.46846 42.2612H9.44014Z" fill="#585666"/>
<path d="M14.3962 42.2613C14.1606 42.2565 13.9264 42.296 13.7069 42.3777C13.4873 42.4593 13.2868 42.5814 13.1167 42.737C12.9467 42.8926 12.8104 43.0787 12.7157 43.2846C12.621 43.4905 12.5697 43.7121 12.5648 43.9369V51.2613C12.5648 51.7248 12.7578 52.1693 13.1012 52.4971C13.4447 52.8249 13.9105 53.009 14.3962 53.009C14.8819 53.009 15.3477 52.8249 15.6912 52.4971C16.0346 52.1693 16.2276 51.7248 16.2276 51.2613V44.054C16.2351 43.8294 16.1957 43.6055 16.1117 43.3955C16.0277 43.1855 15.9007 42.9936 15.7381 42.8309C15.5756 42.6683 15.3807 42.5381 15.1649 42.448C14.9491 42.3579 14.7167 42.3098 14.4812 42.3063L14.3962 42.2613Z" fill="#585666"/>
</g>
<defs>
<clipPath id="clip0_7017_96">
<rect width="29" height="46" fill="white" transform="translate(0 7)"/>
</clipPath>
</defs>
</svg>
